<?xml version="1.0" encoding="UTF-8"?>
<svg id="Layer_1" xmlns="http://www.w3.org/2000/svg" version="1.1" xmlns:xlink="http://www.w3.org/1999/xlink" viewBox="0 0 864 223.64">
  <!-- Generator: Adobe Illustrator 29.1.0, SVG Export Plug-In . SVG Version: 2.1.0 Build 142)  -->
  <defs>
    <style>
      .st0 {
        fill: #009382;
      }

      .st1 {
        fill: #00263a;
      }

      .st2 {
        fill: #00c2b2;
      }
    </style>
  </defs>
  <a xlink:href="92.37397">
    <path id="fullLogo" class="st1" d="M341.19,79.8h-35c-2.37,0-4.28,1.92-4.28,4.29v70.85c0,.99.8,1.79,1.79,1.79h4.89c.99,0,1.79-.8,1.79-1.79v-64.86c0-.99.8-1.79,1.79-1.79h29.01c7.59,0,13.74,6.15,13.74,13.74v52.92c0,.99.8,1.79,1.79,1.79h4.89c.99,0,1.79-.8,1.79-1.79v-52.92c0-12.27-9.95-22.22-22.22-22.22Z"/>
  </a>
  <a xlink:href="92.37397">
    <path id="fullLogo1" data-name="fullLogo" class="st1" d="M454.31,79.8h-16.15c-8.9,0-16.12,7.22-16.12,16.12v59.01c0,.99.8,1.79,1.79,1.79h4.89c.99,0,1.79-.8,1.79-1.79v-59.01c0-4.22,3.42-7.65,7.65-7.65h16.15c.99,0,1.79-.8,1.79-1.79v-4.89c0-.99-.8-1.79-1.79-1.79Z"/>
  </a>
  <a xlink:href="92.37397">
    <path id="fullLogo2" data-name="fullLogo" class="st1" d="M422.04,55.19c0-.99-.8-1.79-1.79-1.79h-25.79c-8.91,0-16.13,7.22-16.13,16.13v85.41c0,.99.8,1.79,1.79,1.79h4.89c.99,0,1.79-.8,1.79-1.79v-64.86c0-.99.8-1.79,1.79-1.79h18.59c.99,0,1.79-.8,1.79-1.79v-4.89c0-.99-.8-1.79-1.79-1.79h-18.59c-.99,0-1.79-.8-1.79-1.79v-8.48c0-4.22,3.42-7.65,7.65-7.65h25.8c.99,0,1.79-.8,1.79-1.79v-4.89Z"/>
  </a>
  <path id="fullLogo3" data-name="fullLogo" class="st1" d="M506.28,79.8h-33.4c-.99,0-1.79.8-1.79,1.79v4.89c0,.99.8,1.79,1.79,1.79h33.4c7.56,0,13.69,6.13,13.69,13.69v8.14c0,.99-.8,1.79-1.79,1.79h-32.07c-11.66,0-21.77,8.7-22.83,20.32-1.21,13.29,9.27,24.5,22.32,24.5h41.07c.99,0,1.79-.8,1.79-1.79v-52.96c0-12.24-9.93-22.17-22.17-22.17ZM519.97,146.45c0,.99-.8,1.79-1.79,1.79h-32.59c-8.46,0-15.18-7.57-13.74-16.29,1.12-6.77,7.23-11.57,14.09-11.57h32.24c.99,0,1.79.8,1.79,1.79v24.28Z"/>
  <path id="fullLogo4" data-name="fullLogo" class="st1" d="M793.33,79.93h-33.85c-4.19,0-7.58,3.39-7.58,7.58v101.36c0,.99.8,1.79,1.79,1.79h11.49c.99,0,1.79-.8,1.79-1.79v-30.36c0-.99.8-1.79,1.79-1.79h24.56c14.73,0,26.67-11.94,26.67-26.67v-23.46c0-14.73-11.94-26.67-26.67-26.67ZM804.93,130.05c0,6.4-5.19,11.59-11.59,11.59h-24.56c-.99,0-1.79-.8-1.79-1.79v-43.06c0-.99.8-1.79,1.79-1.79h24.56c6.4,0,11.59,5.19,11.59,11.59v23.46Z"/>
  <a xlink:href="92.37397">
    <path id="fullLogo5" data-name="fullLogo" class="st1" d="M631.48,79.88h-31.27c-2.43,0-4.58,1.17-5.96,2.96-.01.02-.04.02-.05.01-3.56-1.89-7.62-2.98-11.92-2.98h-31.27c-4.19,0-7.58,3.39-7.58,7.58v67.47c0,.99.8,1.79,1.79,1.79h11.49c.99,0,1.79-.8,1.79-1.79v-58.19c0-.99.8-1.79,1.79-1.79h21.94c5.77,0,10.44,4.67,10.44,10.44v49.54c0,.99.8,1.79,1.79,1.79h11.49c.99,0,1.79-.8,1.79-1.79v-58.19c0-.99.8-1.79,1.79-1.79h21.94c5.77,0,10.44,4.67,10.44,10.44v49.54c0,.99.8,1.79,1.79,1.79h11.49c.99,0,1.79-.8,1.79-1.79v-49.54c0-14.09-11.42-25.51-25.51-25.51Z"/>
  </a>
  <a xlink:href="92.37397">
    <rect id="fullLogo6" data-name="fullLogo" class="st1" x="278.45" y="79.79" width="8.48" height="76.94" rx="1.79" ry="1.79"/>
  </a>
  <a xlink:href="92.37397">
    <rect id="fullLogo7" data-name="fullLogo" class="st1" x="277.01" y="57.45" width="11.37" height="11.37" rx="1.79" ry="1.79"/>
  </a>
  <path id="fullLogo8" data-name="fullLogo" class="st1" d="M711.41,79.93h-33.44c-.99,0-1.79.8-1.79,1.79v11.49c0,.99.8,1.79,1.79,1.79h33.44c5.77,0,10.44,4.67,10.44,10.44v4.52c0,.99-.8,1.79-1.79,1.79h-28.7c-12.16,0-22.55,9.44-22.99,21.59-.46,12.73,9.77,23.23,22.4,23.23h44.36c.99,0,1.79-.8,1.79-1.79v-49.35c0-14.09-11.42-25.51-25.51-25.51ZM721.85,140.66c0,.99-.8,1.79-1.79,1.79h-28.97c-4.23,0-8.02-3.03-8.54-7.23-.62-5.03,3.3-9.34,8.21-9.34h29.29c.99,0,1.79.8,1.79,1.79v12.98Z"/>
  <a xlink:href="45.50842">
    <polygon id="fullLogo9" data-name="fullLogo" class="st0" points="102.44 21.87 77.19 65.62 51.93 21.87 102.44 21.87"/>
  </a>
  <a xlink:href="29.605">
    <polygon id="fullLogo10" data-name="fullLogo" class="st2" points="0 111.82 51.93 201.76 103.86 111.82 51.93 21.87 0 111.82"/>
  </a>
  <a xlink:href="29.605">
    <polygon id="fullLogo11" data-name="fullLogo" class="st2" points="245.61 133.69 141.75 133.69 89.81 223.64 193.67 223.64 245.61 133.69"/>
  </a>
  <a xlink:href="29.605">
    <polygon id="fullLogo12" data-name="fullLogo" class="st2" points="89.81 0 141.75 89.95 245.61 89.95 193.67 0 89.81 0"/>
  </a>
  <a xlink:href="45.50842">
    <polygon id="fullLogo13" data-name="fullLogo" class="st0" points="115.07 179.89 89.81 223.63 64.56 179.89 115.07 179.89"/>
  </a>
  <a xlink:href="45.50842">
    <polygon id="fullLogo14" data-name="fullLogo" class="st0" points="245.61 89.95 220.35 133.69 195.1 89.95 245.61 89.95"/>
  </a>
</svg>